{
  "accessors": [
    {
      "bufferView": 2,
      "componentType": 5126,
      "count": 65532,
      "max": [
        453.1696472167969,
        279.8330078125,
        1053.9224853515625
      ],
      "min": [
        -450.4231872558594,
        -760.2325439453125,
        -738.0391845703125
      ],
      "type": "VEC3"
    },
    {
      "bufferView": 2,
      "byteOffset": 786384,
      "componentType": 5126,
      "count": 65532,
      "max": [
        1.0,
        1.0,
        1.0
      ],
      "min": [
        -1.0,
        -1.0,
        -1.0
      ],
      "type": "VEC3"
    },
    {
      "bufferView": 1,
      "componentType": 5126,
      "count": 65532,
      "max": [
        0.9761070013046265,
        0.9939239025115967
      ],
      "min": [
        0.006075704004615545,
        0.021398425102233887
      ],
      "type": "VEC2"
    },
    {
      "bufferView": 0,
      "componentType": 5125,
      "count": 368265,
      "type": "SCALAR"
    },
    {
      "bufferView": 2,
      "byteOffset": 1572768,
      "componentType": 5126,
      "count": 65532,
      "max": [
        463.9074401855469,
        296.8045349121094,
        -530.5067749023438
      ],
      "min": [
        -451.2100830078125,
        -775.2659301757813,
        -756.91015625
      ],
      "type": "VEC3"
    },
    {
      "bufferView": 2,
      "byteOffset": 2359152,
      "componentType": 5126,
      "count": 65532,
      "max": [
        1.0,
        1.0,
        1.0
      ],
      "min": [
        -1.0,
        -1.0,
        -1.0
      ],
      "type": "VEC3"
    },
    {
      "bufferView": 1,
      "byteOffset": 524256,
      "componentType": 5126,
      "count": 65532,
      "max": [
        0.9761070013046265,
        0.9939239025115967
      ],
      "min": [
        0.006075704004615545,
        0.03057873249053955
      ],
      "type": "VEC2"
    },
    {
      "bufferView": 0,
      "byteOffset": 1473060,
      "componentType": 5125,
      "count": 375603,
      "type": "SCALAR"
    },
    {
      "bufferView": 2,
      "byteOffset": 3145536,
      "componentType": 5126,
      "count": 65532,
      "max": [
        456.74420166015625,
        269.1878967285156,
        907.8553466796875
      ],
      "min": [
        -445.28363037109375,
        -777.0276489257813,
        -756.91015625
      ],
      "type": "VEC3"
    },
    {
      "bufferView": 2,
      "byteOffset": 3931920,
      "componentType": 5126,
      "count": 65532,
      "max": [
        0.9999823570251465,
        0.9999800324440002,
        1.0
      ],
      "min": [
        -1.0,
        -0.9999982714653015,
        -1.0
      ],
      "type": "VEC3"
    },
    {
      "bufferView": 1,
      "byteOffset": 1048512,
      "componentType": 5126,
      "count": 65532,
      "max": [
        0.9726700782775879,
        0.9939239025115967
      ],
      "min": [
        0.006075704004615545,
        0.021735548973083496
      ],
      "type": "VEC2"
    },
    {
      "bufferView": 0,
      "byteOffset": 2975472,
      "componentType": 5125,
      "count": 337770,
      "type": "SCALAR"
    },
    {
      "bufferView": 2,
      "byteOffset": 4718304,
      "componentType": 5126,
      "count": 65532,
      "max": [
        276.1538391113281,
        144.8361358642578,
        1383.9647216796875
      ],
      "min": [
        -305.5144348144531,
        -534.1188354492188,
        -713.48193359375
      ],
      "type": "VEC3"
    },
    {
      "bufferView": 2,
      "byteOffset": 5504688,
      "componentType": 5126,
      "count": 65532,
      "max": [
        0.9999889135360718,
        0.9999856948852539,
        0.9999410510063171
      ],
      "min": [
        -0.9999874234199524,
        -0.9999755024909973,
        -1.0
      ],
      "type": "VEC3"
    },
    {
      "bufferView": 1,
      "byteOffset": 1572768,
      "componentType": 5126,
      "count": 65532,
      "max": [
        0.9817696213722229,
        0.9939239025115967
      ],
      "min": [
        0.006075704004615545,
        0.0183255672454834
      ],
      "type": "VEC2"
    },
    {
      "bufferView": 0,
      "byteOffset": 4326552,
      "componentType": 5125,
      "count": 316503,
      "type": "SCALAR"
    },
    {
      "bufferView": 2,
      "byteOffset": 6291072,
      "componentType": 5126,
      "count": 65532,
      "max": [
        275.3199768066406,
        154.65878295898438,
        898.1478271484375
      ],
      "min": [
        -335.1899108886719,
        -533.29052734375,
        -716.7247924804688
      ],
      "type": "VEC3"
    },
    {
      "bufferView": 2,
      "byteOffset": 7077456,
      "componentType": 5126,
      "count": 65532,
      "max": [
        0.9999228715896606,
        0.9999870657920837,
        0.999821662902832
      ],
      "min": [
        -0.9999654293060303,
        -0.9999882578849792,
        -0.9999986886978149
      ],
      "type": "VEC3"
    },
    {
      "bufferView": 1,
      "byteOffset": 2097024,
      "componentType": 5126,
      "count": 65532,
      "max": [
        0.985028862953186,
        0.9939239025115967
      ],
      "min": [
        0.006075704004615545,
        0.01578831672668457
      ],
      "type": "VEC2"
    },
    {
      "bufferView": 0,
      "byteOffset": 5592564,
      "componentType": 5125,
      "count": 308550,
      "type": "SCALAR"
    },
    {
      "bufferView": 2,
      "byteOffset": 7863840,
      "componentType": 5126,
      "count": 65532,
      "max": [
        192.45542907714844,
        128.6466827392578,
        1028.7169189453125
      ],
      "min": [
        -308.63067626953125,
        -141.6254425048828,
        -351.34588623046875
      ],
      "type": "VEC3"
    },
    {
      "bufferView": 2,
      "byteOffset": 8650224,
      "componentType": 5126,
      "count": 65532,
      "max": [
        0.9999994039535522,
        0.9999576210975647,
        0.9999912977218628
      ],
      "min": [
        -0.9999514222145081,
        -0.9999772906303406,
        -0.999983549118042
      ],
      "type": "VEC3"
    },
    {
      "bufferView": 1,
      "byteOffset": 2621280,
      "componentType": 5126,
      "count": 65532,
      "max": [
        0.9928337335586548,
        0.9939239025115967
      ],
      "min": [
        0.006075704004615545,
        0.00607609748840332
      ],
      "type": "VEC2"
    },
    {
      "bufferView": 0,
      "byteOffset": 6826764,
      "componentType": 5125,
      "count": 332328,
      "type": "SCALAR"
    },
    {
      "bufferView": 2,
      "byteOffset": 9436608,
      "componentType": 5126,
      "count": 55865,
      "max": [
        461.1440124511719,
        294.8392333984375,
        1010.9879760742188
      ],
      "min": [
        -444.6512451171875,
        -778.080322265625,
        -751.9198608398438
      ],
      "type": "VEC3"
    },
    {
      "bufferView": 2,
      "byteOffset": 10106988,
      "componentType": 5126,
      "count": 55865,
      "max": [
        1.0,
        1.0,
        1.0
      ],
      "min": [
        -1.0,
        -1.0,
        -1.0
      ],
      "type": "VEC3"
    },
    {
      "bufferView": 1,
      "byteOffset": 3145536,
      "componentType": 5126,
      "count": 55865,
      "max": [
        0.9939243197441101,
        0.9939239025115967
      ],
      "min": [
        0.006075704004615545,
        0.00607609748840332
      ],
      "type": "VEC2"
    },
    {
      "bufferView": 0,
      "byteOffset": 8156076,
      "componentType": 5125,
      "count": 289785,
      "type": "SCALAR"
    }
  ],
  "asset": {
    "extras": {
      "author": "StraXartS (https://sketchfab.com/Strax123trt)",
      "license": "CC-BY-4.0 (http://creativecommons.org/licenses/by/4.0/)",
      "source": "https://sketchfab.com/3d-models/pennywise-the-dancing-clown-it-b5d5075716f14557beb55175f415a836",
      "title": "Pennywise the Dancing Clown IT"
    },
    "generator": "Sketchfab-12.66.0",
    "version": "2.0"
  },
  "bufferViews": [
    {
      "buffer": 0,
      "byteLength": 9315216,
      "name": "floatBufferViews",
      "target": 34963
    },
    {
      "buffer": 0,
      "byteLength": 3592456,
      "byteOffset": 9315216,
      "byteStride": 8,
      "name": "floatBufferViews",
      "target": 34962
    },
    {
      "buffer": 0,
      "byteLength": 10777368,
      "byteOffset": 12907672,
      "byteStride": 12,
      "name": "floatBufferViews",
      "target": 34962
    }
  ],
  "buffers": [
    {
      "byteLength": 23685040,
      "uri": "scene.bin"
    }
  ],
  "images": [
    {
      "uri": "textures/material_baseColor.png"
    },
    {
      "uri": "textures/material_metallicRoughness.png"
    }
  ],
  "materials": [
    {
      "doubleSided": true,
      "name": "material",
      "pbrMetallicRoughness": {
        "baseColorTexture": {
          "index": 0
        },
        "metallicFactor": 0.5594180482806581,
        "metallicRoughnessTexture": {
          "index": 1
        },
        "roughnessFactor": 0.7799758911132813
      }
    }
  ],
  "meshes": [
    {
      "name": "Object_0",
      "primitives": [
        {
          "attributes": {
            "NORMAL": 1,
            "POSITION": 0,
            "TEXCOORD_0": 2
          },
          "indices": 3,
          "material": 0,
          "mode": 4
        }
      ]
    },
    {
      "name": "Object_1",
      "primitives": [
        {
          "attributes": {
            "NORMAL": 5,
            "POSITION": 4,
            "TEXCOORD_0": 6
          },
          "indices": 7,
          "material": 0,
          "mode": 4
        }
      ]
    },
    {
      "name": "Object_2",
      "primitives": [
        {
          "attributes": {
            "NORMAL": 9,
            "POSITION": 8,
            "TEXCOORD_0": 10
          },
          "indices": 11,
          "material": 0,
          "mode": 4
        }
      ]
    },
    {
      "name": "Object_3",
      "primitives": [
        {
          "attributes": {
            "NORMAL": 13,
            "POSITION": 12,
            "TEXCOORD_0": 14
          },
          "indices": 15,
          "material": 0,
          "mode": 4
        }
      ]
    },
    {
      "name": "Object_4",
      "primitives": [
        {
          "attributes": {
            "NORMAL": 17,
            "POSITION": 16,
            "TEXCOORD_0": 18
          },
          "indices": 19,
          "material": 0,
          "mode": 4
        }
      ]
    },
    {
      "name": "Object_5",
      "primitives": [
        {
          "attributes": {
            "NORMAL": 21,
            "POSITION": 20,
            "TEXCOORD_0": 22
          },
          "indices": 23,
          "material": 0,
          "mode": 4
        }
      ]
    },
    {
      "name": "Object_6",
      "primitives": [
        {
          "attributes": {
            "NORMAL": 25,
            "POSITION": 24,
            "TEXCOORD_0": 26
          },
          "indices": 27,
          "material": 0,
          "mode": 4
        }
      ]
    }
  ],
  "nodes": [
    {
      "children": [
        1
      ],
      "matrix": [
        1.0,
        -2.832769343193999e-16,
        -9.435017244798779e-32,
        0.0,
        4.8795769672831353e-32,
        5.053215392444312e-16,
        -1.0,
        0.0,
        2.832769343193999e-16,
        1.0,
        5.053215392444312e-16,
        0.0,
        -8.881784197001252e-14,
        5.684341886080804e-14,
        -8.526512829121201e-14,
        1.0
      ],
      "name": "Sketchfab_model"
    },
    {
      "children": [
        2,
        3,
        4,
        5,
        6,
        7,
        8
      ],
      "name": "OBJ.obj.cleaner.materialmerger.gles"
    },
    {
      "mesh": 0,
      "name": "Object_2"
    },
    {
      "mesh": 1,
      "name": "Object_3"
    },
    {
      "mesh": 2,
      "name": "Object_4"
    },
    {
      "mesh": 3,
      "name": "Object_5"
    },
    {
      "mesh": 4,
      "name": "Object_6"
    },
    {
      "mesh": 5,
      "name": "Object_7"
    },
    {
      "mesh": 6,
      "name": "Object_8"
    }
  ],
  "samplers": [
    {
      "magFilter": 9729,
      "minFilter": 9987,
      "wrapS": 10497,
      "wrapT": 10497
    },
    {
      "magFilter": 9728,
      "minFilter": 9986,
      "wrapS": 10497,
      "wrapT": 10497
    }
  ],
  "scene": 0,
  "scenes": [
    {
      "name": "Sketchfab_Scene",
      "nodes": [
        0
      ]
    }
  ],
  "textures": [
    {
      "sampler": 0,
      "source": 0
    },
    {
      "sampler": 1,
      "source": 1
    }
  ]
}
